<svg id="Layer_1" xmlns="http://www.w3.org/2000/svg" viewBox="0 0 291 614" class="rocket"><path class="st1" d="M85.8 100c1.3-8.2 5.3-15.5 9-22.6 5.2-9.8 10.5-19.6 16.5-29 11.2-17.5 24.3-33.3 40.3-46.6.2-.2.3-.6.4-.9h1l1.2 1.8c-.4 6.4-.5 12.9-1 19.3-1.2 16.3-1 32.8-2.5 49.1-.9 9.2.4 18.6-1.7 27.7-21.1-.2-42.2 1-63.2 1.2z"/><path class="st2" d="M1 410c.3 0 .6.1.9.1v23.8c-.3 0-.6.1-.9.1v-24z"/><path class="st3" d="M206 396.8c-4.1 1.8-4.1 6.3-5.8 9.5-1.6 2.9-2.8 4.2-5.8 2.7-2.3-1.2-4.8-1-7.2-1-8.2-2.2-16.6-2.9-25-4.2.6-10.2 1.7-20.4 1.7-30.6 0-20-1.2-39.9-5.1-59.5-2.4-12-4.9-24.1-11.7-34.7-.2-1.1.3-2.5-1.1-3.1 1.9-4.7.2-9.6 1-14.3 1.8-11 .8-22.1.5-33.2 1.3-.6 2.6-1.3 4.2-1.3 11.1.1 20-4.5 27.4-12.5 18.6-19.8 9.6-47.8-12.3-57.8-6.1-2.8-12.5-3-18.8-4.6 1.1-.9.8-2.1.8-3.2.2-6.5.1-13.1.8-19.6.6-6.4 1.2-13-.6-19.4.6-.8 1.4-.8 2.2-.8 12.3-.4 24.5 1.8 36.8 1 .5 0 1 .2 1.5.3 10.5.9 21 1.7 31.5 2.6 4.2 14.8 8.1 29.7 10.9 44.8 2.5 13.3 3.8 26.8 5.2 40.4 1.6 15.6 3.7 31.3 2.7 47-1 16.7-1.4 33.4-5.6 49.7-1.1 4.4-1 9-2.2 13.5-.4 1.5.8 2.4 2 3-.7 1.3-1.9 2.6-2 3.9-.8 8.2-3.1 16.1-5.2 24-5.1 19.6-11.5 39-20.8 57.4z"/><path class="st4" d="M147.5 228.3c.3 11.1 1.2 22.1-.5 33.2-.7 4.7.9 9.6-1 14.3-1.3 2.3-2.8 4.5-3.9 6.9-9.1 19.8-12.6 40.9-14.8 62.3-1.9 18.1-1.6 36.2-.9 54.4.1 2.8-.6 3.7-3.4 4.1-5.4.7-10.8 1.7-16.2 2.8-1.7.3-3.9.3-3.9 3-.7-.7-1.7-2-2-1.9-5.6 2.2-6.1-2.4-7.9-5.5l-3.9-6.9c-3.9-9.2-7.5-18.4-10.5-27.9-6.1-19.1-11.3-38.5-13.6-58.5-1.6-13.9-3.7-27.8-4.6-41.8-.8-11.6-.4-23.3-.2-34.9.3-19.2 2.5-38.2 5.6-57.2 3.2-19.6 7.8-38.9 14-57.8.3-1.1.2-2.3.3-3.4 23-2.7 46-3.6 69.1-3.5 1.8 6.4 1.2 13.1.6 19.4-.7 6.6-.5 13.1-.8 19.6 0 1.1.2 2.3-.8 3.2-2.6.3-5.3.5-7.9 1-24.2 5.1-37.6 33.1-25.8 54.3 7 12.8 18.5 19.3 33 20.8z"/><path class="st5 flame-orange" d="M90.8 470.9c1.5-17 5.2-33.2 15.1-47.6.2-.3.1-1 .1-1.5 6.1-2.2 12.4-.6 18.6-.7-4.1 3.4-8 6.9-10.9 11.5-8.4 13.7-8.1 28.5-4.9 43.4 5.4 25.3 18.6 47.2 32.5 68.5 2.3 3.5 3.4.9 4.6-.6 13.6-17.8 25.1-36.8 31.2-58.6 6.3-22.9 4.7-44.4-11.3-63.3l.3-.9c5.3 0 10.5-.1 15.8-.1.1.3.1.6.2 1 15.7 26.1 16.1 54.2 10.4 83-5.7 28.4-18.7 53.8-32.7 78.8-5.6 10.1-12.1 19.6-18.4 29.5-7.3-9.9-13.3-20.7-19.4-31.5-8.1-14-14.4-28.9-20.2-43.9-3.8-10-6.9-20.3-8.7-30.8-1.1-6.3-1.6-12.8-2.3-19.2v-17z"/><path class="st1" d="M64.8 308.4c2.2 20 7.5 39.4 13.6 58.5 3 9.5 6.7 18.7 10.5 27.9-35.8 14.2-61 39.5-77.9 73.7-3.1-3.1-2.9-7.2-4.2-10.8-1.3-3.9-2.9-7.6-3-11.8-.1-4-1.3-8-2-12v-23.8c3.5-29.2 13.9-55.3 33.8-77.6 8.1-9.1 17.3-16.5 26.9-23.7.9-.6 1.5-.7 2.3-.4z"/><path class="st2" d="M206 396.8c9.2-18.4 15.6-37.8 20.9-57.7 2.1-7.9 4.3-15.8 5.2-24 .1-1.4 1.3-2.6 2-3.9 21.1 14.9 36.7 34.6 47 58.1 5.9 13.3 9.9 27.5 9.9 42.4 0 18 .8 36-6.2 53.1-.4 1.1-.7 2.2-1.1 3.3-.7 1.7-1.4 3.4-2.4 5.8-15.2-35.8-40.3-61.3-75.3-77.1zM149 98.9c2.2-9.1.9-18.5 1.7-27.7 1.5-16.3 1.3-32.8 2.5-49.1.5-6.4.5-12.9 1-19.3 9.5 6.6 16.6 15.7 23.4 24.8 14.7 19.5 25.4 41.2 35.6 63.2 1.7 3.6 2.8 7.3 3.9 11.1-7.7-1.7-15.5-1.1-23.3-1.7-14.9-1-29.8-.9-44.8-1.3z"/><path class="st1" d="M124.6 421.2c-6.2.2-12.5-1.5-18.6.7-3.4-1.6-4-4.5-3.5-7.9.2-1.6 1-3.2.3-4.9 0-2.6 2.2-2.6 3.9-3 5.4-1 10.8-2.1 16.2-2.8 2.7-.3 3.5-1.2 3.4-4.1-.7-18.1-1-36.3.9-54.4 2.3-21.4 5.8-42.5 14.8-62.3 1.1-2.4 2.6-4.6 3.9-6.9 1.4.7.9 2 1.1 3.1-.6 14.6-.2 29.2-.8 43.9-1.2 27.9.2 55.9-1.1 83.8-.8 18.1-.4 36.3-.1 54.4 0 3-2.4 6.1-.1 9.1-1.9 2-1.9 2.1-3.4-.8-7.1-13.9-10.4-28.8-12.7-44.1-.3-2.5-.6-4.7-4.2-3.8z"/><path class="st5" d="M149 98.9c15 .4 29.9.3 44.8 1.3 7.8.6 15.6 0 23.3 1.7 2.1 3.4 2.9 7.2 3.9 10.9-10.5-.9-21-1.7-31.5-2.6-.5 0-1-.3-1.5-.3-12.3.8-24.5-1.5-36.8-1-.8 0-1.7 0-2.2.8-23.1-.2-46.2.8-69.1 3.5.4-5.1 3.3-9.1 5.8-13.2 21.1-.2 42.2-1.4 63.3-1.1z"/><path class="st1" d="M181.9 421.1c-5.3 0-10.5.1-15.8.1-2.1-1-6.7 1.6-5.9-3.4.8-4.7.2-9.6 2-14.1 8.4 1.3 16.8 2 25 4.2-.9 4.3.7 8.8-1.1 13.1-1.4.1-2.8.1-4.2.1z"/><path class="st4" d="M90.8 470.9V488c-1.4-5.6-1.4-11.4 0-17.1z"/><path class="st2" d="M181.9 421.1c1.4 0 2.8-.1 4.1-.1-1 1.7-2.7.7-4 1.1 0-.3 0-.6-.1-1zM162.2 403.7c-1.8 4.5-1.2 9.4-2 14.1-.8 5 3.8 2.4 5.9 3.4l-.3.9c-4.1-.8-6 .8-6.4 5-.4 3.9-1.3 7.8-2.3 11.7-3 10.8-5.4 21.9-12 31.3-2.3-3 .1-6.1.1-9.1-.3-18.1-.7-36.3.1-54.4 1.3-27.9-.1-55.9 1.1-83.8.6-14.6.2-29.3.8-43.9 6.9 10.5 9.3 22.7 11.7 34.7 3.9 19.6 5.1 39.6 5.1 59.5-.1 10.2-1.2 20.4-1.8 30.6z"/><path class="st5" d="M147.5 228.3c-14.5-1.6-26-8-33.2-21-11.7-21.1 1.6-49.2 25.8-54.3 2.6-.5 5.3-.7 7.9-1 6.2 1.6 12.7 1.8 18.8 4.6 21.9 10 30.9 37.9 12.3 57.8-7.4 7.9-16.4 12.6-27.4 12.5-1.6.1-2.9.8-4.2 1.4zm32.6-38.4c0-15.9-13.8-29-30.3-28.8-16.6.2-30.1 13.3-30 29.2.1 15.9 13.7 28.8 30.4 28.7 16.6-.1 29.9-13 29.9-29.1z"/><path class="st4 flame-yellow" d="M145 470.1c6.5-9.5 9-20.5 12-31.3 1-3.8 1.9-7.7 2.3-11.7.4-4.2 2.4-5.8 6.4-5 16.1 18.9 17.6 40.5 11.3 63.3-6 21.8-17.5 40.8-31.2 58.6-1.2 1.5-2.3 4.1-4.6.6-14-21.4-27.1-43.2-32.5-68.5-3.2-14.9-3.6-29.7 4.9-43.4 2.8-4.6 6.8-8.1 10.9-11.5 3.6-.8 3.9 1.4 4.3 4.2 2.3 15.2 5.6 30.2 12.7 44.1 1.5 2.7 1.6 2.6 3.5.6zM180.1 189.9c0 16.1-13.3 29-29.9 29.1-16.7.1-30.3-12.8-30.4-28.7-.1-15.9 13.3-29 30-29.2 16.5-.2 30.3 12.9 30.3 28.8z"/></svg>